<svg width="512" height="512" viewBox="0 0 512 512" fill="none" xmlns="http://www.w3.org/2000/svg">
<path d="M208.5 62.3122L236.6 25.405C248.8 9.40184 267.8 0 288 0C316.5 0 341.6 18.7037 349.8 46.009L367.6 105.421C377.9 139.827 403.7 167.433 437.4 180.035L477.2 194.938C498.1 202.84 512 222.844 512 245.148C512 262.051 504.1 277.954 490.5 288.056L423.2 338.566C398.9 356.77 386 386.475 389.4 416.681L391.9 439.386C396.2 478.093 365.9 512 326.9 512C312.1 512 297.6 506.899 286.1 497.697L230.7 453.389C226.2 449.788 221.4 446.687 216.2 444.187C200.4 436.285 182.5 433.785 165.2 436.885L82.4 451.988C47.8 458.29 16 431.684 16 396.577C16 383.375 20.7 370.572 29.1 360.37L40.3 346.968C54.9 329.564 62.9 307.56 62.9 284.856C62.9 266.052 57.4 247.648 47.1 231.845L8.8 173.534C3.1 164.732 0 154.43 0 143.928C0 110.522 30.1 85.1166 63 90.7177L114.3 99.4194C150.2 105.521 186.5 91.2178 208.5 62.3122Z" fill="black"/>
</svg>
