<svg width="512" height="75" viewBox="0 0 512 75" fill="none" xmlns="http://www.w3.org/2000/svg">
<path d="M102.429 72.3568H86.6348L110.701 3.91028H129.696L153.728 72.3568H137.933L120.471 19.5514H119.926L102.429 72.3568ZM101.442 45.4528H138.75V56.7491H101.442V45.4528Z" fill="black"/>
<path d="M161.846 72.3568V21.0219H175.905V29.9788H176.45C177.403 26.7926 179.003 24.3863 181.249 22.7598C183.496 21.111 186.083 20.2866 189.01 20.2866C189.737 20.2866 190.52 20.3312 191.359 20.4203C192.199 20.5095 192.936 20.632 193.572 20.788V33.4212C192.891 33.2206 191.949 33.0424 190.746 32.8864C189.544 32.7305 188.443 32.6525 187.445 32.6525C185.311 32.6525 183.405 33.1092 181.726 34.0227C180.069 34.914 178.753 36.1617 177.777 37.7659C176.824 39.3701 176.348 41.2194 176.348 43.3138V72.3568H161.846Z" fill="black"/>
<path d="M231.501 21.0219V31.7167H200.014V21.0219H231.501ZM207.162 8.72293H221.663V56.582C221.663 57.8966 221.868 58.9215 222.276 59.6568C222.685 60.3698 223.252 60.8711 223.978 61.1607C224.727 61.4504 225.589 61.5952 226.565 61.5952C227.246 61.5952 227.927 61.5395 228.608 61.4281C229.288 61.2944 229.81 61.1942 230.173 61.1273L232.454 71.7218C231.728 71.9446 230.707 72.2009 229.391 72.4905C228.074 72.8024 226.474 72.9918 224.591 73.0587C221.096 73.1924 218.032 72.7356 215.4 71.6884C212.79 70.6412 210.759 69.0147 209.307 66.8089C207.854 64.6031 207.14 61.818 207.162 58.4536V8.72293Z" fill="black"/>
<path d="M240.947 72.3568V21.0219H255.448V72.3568H240.947ZM248.232 14.4045C246.076 14.4045 244.226 13.7027 242.683 12.299C241.163 10.873 240.402 9.16854 240.402 7.18555C240.402 5.22484 241.163 3.54265 242.683 2.13896C244.226 0.712986 246.076 0 248.232 0C250.388 0 252.226 0.712986 253.746 2.13896C255.289 3.54265 256.061 5.22484 256.061 7.18555C256.061 9.16854 255.289 10.873 253.746 12.299C252.226 13.7027 250.388 14.4045 248.232 14.4045Z" fill="black"/>
<path d="M310.568 35.6604L297.292 36.4625C297.065 35.3485 296.577 34.3458 295.828 33.4546C295.079 32.5411 294.092 31.817 292.867 31.2822C291.664 30.7252 290.223 30.4467 288.544 30.4467C286.297 30.4467 284.402 30.9146 282.859 31.8504C281.316 32.7639 280.544 33.9893 280.544 35.5267C280.544 36.7521 281.044 37.7882 282.042 38.6349C283.041 39.4815 284.754 40.1611 287.182 40.6736L296.645 42.5451C301.729 43.5701 305.518 45.2188 308.015 47.4915C310.511 49.7641 311.759 52.7497 311.759 56.4484C311.759 59.8127 310.749 62.7649 308.729 65.305C306.732 67.845 303.987 69.828 300.492 71.2539C297.02 72.6576 293.014 73.3595 288.476 73.3595C281.554 73.3595 276.04 71.9446 271.932 69.115C267.847 66.263 265.453 62.3862 264.75 57.4844L279.012 56.7491C279.444 58.8213 280.488 60.4032 282.144 61.4949C283.801 62.5644 285.923 63.0992 288.51 63.0992C291.051 63.0992 293.094 62.6201 294.637 61.6621C296.203 60.6817 296.997 59.4228 297.02 57.8855C296.997 56.5932 296.441 55.5348 295.352 54.7105C294.262 53.8638 292.583 53.2176 290.314 52.772L281.259 51.0007C276.153 49.9981 272.352 48.2602 269.856 45.787C267.382 43.3138 266.145 40.1611 266.145 36.3288C266.145 33.0313 267.053 30.1905 268.869 27.8064C270.707 25.4224 273.282 23.5842 276.596 22.2919C279.932 20.9996 283.835 20.3535 288.305 20.3535C294.909 20.3535 300.106 21.7238 303.896 24.4643C307.708 27.2048 309.932 30.9369 310.568 35.6604Z" fill="black"/>
<path d="M335.8 73.326C332.464 73.326 329.491 72.7579 326.881 71.6216C324.272 70.463 322.207 68.7585 320.686 66.5081C319.188 64.2355 318.439 61.4058 318.439 58.0191C318.439 55.1672 318.973 52.772 320.039 50.8336C321.106 48.8952 322.558 47.3355 324.396 46.1546C326.235 44.9738 328.322 44.0825 330.66 43.4809C333.02 42.8794 335.494 42.456 338.081 42.2109C341.121 41.899 343.572 41.6094 345.433 41.342C347.294 41.0523 348.644 40.629 349.484 40.072C350.324 39.515 350.744 38.6906 350.744 37.5988V37.3983C350.744 35.2816 350.063 33.644 348.701 32.4854C347.362 31.3268 345.456 30.7475 342.982 30.7475C340.373 30.7475 338.296 31.3156 336.753 32.452C335.21 33.566 334.189 34.9697 333.689 36.663L320.278 35.5935C320.958 32.4742 322.297 29.7783 324.294 27.5056C326.291 25.2107 328.867 23.4505 332.021 22.2251C335.198 20.9774 338.875 20.3535 343.05 20.3535C345.955 20.3535 348.735 20.6877 351.39 21.3561C354.068 22.0246 356.44 23.0606 358.505 24.4643C360.592 25.868 362.238 27.6727 363.44 29.8785C364.643 32.062 365.245 34.68 365.245 37.7325V72.3568H351.492V65.2381H351.084C350.244 66.8423 349.121 68.2572 347.714 69.4826C346.307 70.6858 344.616 71.6327 342.642 72.3234C340.668 72.9918 338.387 73.326 335.8 73.326ZM339.953 63.5002C342.086 63.5002 343.97 63.088 345.603 62.2636C347.237 61.417 348.52 60.2806 349.45 58.8547C350.38 57.4287 350.846 55.8134 350.846 54.0086V48.561C350.392 48.8506 349.768 49.118 348.973 49.3631C348.202 49.5859 347.328 49.7975 346.352 49.9981C345.377 50.1763 344.401 50.3434 343.425 50.4994C342.449 50.6331 341.564 50.7556 340.77 50.867C339.068 51.1121 337.581 51.502 336.31 52.0368C335.04 52.5715 334.053 53.2956 333.349 54.2091C332.646 55.1004 332.294 56.2144 332.294 57.5513C332.294 59.4897 333.009 60.9714 334.438 61.9963C335.891 62.9989 337.729 63.5002 339.953 63.5002Z" fill="black"/>
<path d="M390.996 42.6788V72.3568H376.495V21.0219H390.315V30.0791H390.928C392.085 27.0934 394.025 24.7317 396.749 22.9938C399.472 21.2336 402.774 20.3535 406.654 20.3535C410.285 20.3535 413.451 21.1333 416.152 22.693C418.852 24.2526 420.951 26.4807 422.449 29.3772C423.947 32.2514 424.696 35.6827 424.696 39.6709V72.3568H410.195V42.2109C410.217 39.0693 409.4 36.6185 407.744 34.8583C406.087 33.0758 403.806 32.1846 400.902 32.1846C398.95 32.1846 397.225 32.5968 395.728 33.4212C394.252 34.2456 393.095 35.4487 392.255 37.0307C391.438 38.5903 391.019 40.473 390.996 42.6788Z" fill="black"/>
<path d="M441.639 72.3568H432.789L458.387 3.91028H467.101L492.699 72.3568H483.849L463.016 14.7387H462.472L441.639 72.3568ZM444.907 45.6199H480.581V52.9725H444.907V45.6199Z" fill="black"/>
<path d="M512 3.91028V72.3568H503.558V3.91028H512Z" fill="black"/>
<path d="M27.0646 17.554L30.7122 12.8513C32.2958 10.8122 34.7621 9.61416 37.3842 9.61416C41.0837 9.61416 44.3418 11.9974 45.4062 15.4767L47.7168 23.047C49.0538 27.4311 52.4028 30.9486 56.7773 32.5544L61.9436 34.4534C64.6565 35.4602 66.4608 38.0091 66.4608 40.8512C66.4608 43.005 65.4353 45.0314 63.67 46.3186L54.934 52.7547C51.7797 55.0742 50.1052 58.8593 50.5466 62.7082L50.8711 65.6012C51.4292 70.5334 47.4961 74.8538 42.4337 74.8538C40.5125 74.8538 38.6304 74.2038 37.1376 73.0313L29.9463 67.3855C29.3622 66.9266 28.7391 66.5316 28.0641 66.213C26.0132 65.2061 23.6896 64.8875 21.444 65.2826L10.696 67.207C6.20474 68.0099 2.0769 64.6199 2.0769 60.1465C2.0769 58.4642 2.68699 56.8329 3.77736 55.533L5.23119 53.8252C7.12636 51.6076 8.16481 48.8038 8.16481 45.9108C8.16481 43.5148 7.45088 41.1698 6.11388 39.1562L1.1423 31.726C0.402399 30.6045 0 29.2918 0 27.9536C0 23.6969 3.90717 20.4598 8.1778 21.1735L14.8369 22.2823C19.4969 23.0597 24.2089 21.2372 27.0646 17.554Z" fill="black"/>
</svg>
